<svg width="1em" height="1em" viewBox="0 0 24 24" fill="currentColor" xmlns="http://www.w3.org/2000/svg">
  <path d="M12.7587 2H16.2413C17.0463 1.99999 17.7106 1.99998 18.2518 2.04419C18.8139 2.09012 19.3306 2.18868 19.816 2.43597C20.5686 2.81947 21.1805 3.43139 21.564 4.18404C21.8113 4.66937 21.9099 5.18608 21.9558 5.74817C22 6.28936 22 6.95372 22 7.75868V11.2413C22 12.0463 22 12.7106 21.9558 13.2518C21.9099 13.8139 21.8113 14.3306 21.564 14.816C21.1805 15.5686 20.5686 16.1805 19.816 16.564C19.3306 16.8113 18.8139 16.9099 18.2518 16.9558C17.8906 16.9853 17.4745 16.9951 16.9984 16.9984C16.9951 17.4745 16.9853 17.8906 16.9558 18.2518C16.9099 18.8139 16.8113 19.3306 16.564 19.816C16.1805 20.5686 15.5686 21.1805 14.816 21.564C14.3306 21.8113 13.8139 21.9099 13.2518 21.9558C12.7106 22 12.0463 22 11.2413 22H7.75868C6.95372 22 6.28936 22 5.74818 21.9558C5.18608 21.9099 4.66937 21.8113 4.18404 21.564C3.43139 21.1805 2.81947 20.5686 2.43597 19.816C2.18868 19.3306 2.09012 18.8139 2.04419 18.2518C1.99998 17.7106 1.99999 17.0463 2 16.2413V12.7587C1.99999 11.9537 1.99998 11.2894 2.04419 10.7482C2.09012 10.1861 2.18868 9.66937 2.43597 9.18404C2.81947 8.43139 3.43139 7.81947 4.18404 7.43598C4.66937 7.18868 5.18608 7.09012 5.74817 7.04419C6.10939 7.01468 6.52548 7.00487 7.00162 7.00162C7.00487 6.52548 7.01468 6.10939 7.04419 5.74817C7.09012 5.18608 7.18868 4.66937 7.43598 4.18404C7.81947 3.43139 8.43139 2.81947 9.18404 2.43597C9.66937 2.18868 10.1861 2.09012 10.7482 2.04419C11.2894 1.99998 11.9537 1.99999 12.7587 2ZM9.00176 7L11.2413 7C12.0463 6.99999 12.7106 6.99998 13.2518 7.04419C13.8139 7.09012 14.3306 7.18868 14.816 7.43598C15.5686 7.81947 16.1805 8.43139 16.564 9.18404C16.8113 9.66937 16.9099 10.1861 16.9558 10.7482C17 11.2894 17 11.9537 17 12.7587V14.9982C17.4455 14.9951 17.7954 14.9864 18.089 14.9624C18.5274 14.9266 18.7516 14.8617 18.908 14.782C19.2843 14.5903 19.5903 14.2843 19.782 13.908C19.8617 13.7516 19.9266 13.5274 19.9624 13.089C20.0733 13.5274 19.9266 13.5274 19.9624 13.089C19.9864 12.7954 19.9951 12.4455 17 12.7587V14.9982Z"/>
</svg>
