<svg width="24px" height="24px" viewBox="0 0 24 24" fill="currentColor" xmlns="http://www.w3.org/2000/svg">
  <path d="M18.8284 8.17157C19.0474 7.95262 19.0474 7.59876 18.8284 7.37981L16.8284 5.37981C16.6094 5.16086 16.2556 5.16086 16.0366 5.37981L5.37975 16.0367C5.1608 16.2556 5.1608 16.6095 5.37975 16.8284L7.37975 18.8284C7.5987 19.0473 7.95256 19.0473 8.17151 18.8284L18.8284 8.17157Z" fill="currentColor"/>
  <path d="M16.8284 10.8284C16.6094 11.0473 16.2556 11.0473 16.0366 10.8284L13.1716 7.96344C12.9526 7.74449 12.5987 7.74449 12.3798 7.96344L7.96338 12.3799C7.74443 12.5988 7.74443 12.9527 7.96338 13.1716L10.8283 16.0366C11.0473 16.2555 11.4011 16.2555 11.6201 16.0366L16.0365 11.6201C16.2555 11.4012 16.6094 11.4012 16.8283 11.6201L18.8284 13.6202C19.0474 13.8391 19.0474 14.193 18.8284 14.4119L14.4119 18.8284C14.193 19.0473 13.8391 19.0473 13.6202 18.8284L11.6201 16.8283C11.4012 16.6094 11.0473 16.6094 10.8283 16.8283L8.82825 18.8283C8.6093 19.0473 8.25544 19.0473 8.03649 18.8283L3.62184 14.4136C3.40289 14.1947 3.40289 13.8408 3.62184 13.6219L13.6218 3.62191C13.8407 3.40296 14.1946 3.40296 14.4135 3.62191L18.8282 8.0366C19.0472 8.25555 19.0472 8.60941 18.8282 8.82836L16.8284 10.8284Z" fill="currentColor"/>
</svg>
