<svg width="24px" height="24px" viewBox="0 0 24 24" fill="currentColor" xmlns="http://www.w3.org/2000/svg">
  <path d="M4 11a1 1 0 0 0 0 2h8.764l-2.65 2.65a1 1 0 0 0 1.414 1.414l4.357-4.357a1 1 0 0 0 0-1.414L11.528 6.936a1 1 0 0 0-1.414 1.414L12.764 11H4Z"/>
  <path d="M21 12a9 9 0 0 1-9 9c-.208 0-.414-.008-.618-.023L12 19.5l.382-1.477c.205.016.411.024.618.024a7 7 0 0 0 0-14c-.207 0-.413.008-.618.024L12 4.5l-.382-1.477C11.586 3.008 11.792 3 12 3a9 9 0 0 1 9 9Z"/>
  <path d="M7.5 22A4.5 4.5 0 0 0 12 17.5v-11A4.5 4.5 0 0 0 3 8a1 1 0 0 0 2 0 2.5 2.5 0 0 1 5 0v11a2.5 2.5 0 1 1-5 0 1 1 0 0 0-2 0A4.5 4.5 0 0 0 7.5 22Z"/>
</svg>
